<?xml version="1.0" encoding="utf-8"?>
<!-- Generator: Adobe Illustrator 22.1.0, SVG Export Plug-In . SVG Version: 6.00 Build 0)  -->
<svg version="1.1" id="Layer_1" xmlns="http://www.w3.org/2000/svg" xmlns:xlink="http://www.w3.org/1999/xlink" x="0px" y="0px"
	 viewBox="0 0 100 125" style="enable-background:new 0 0 100 125;" xml:space="preserve">
<path d="M60.5,71.4c1.5,1.5,1.5,3.8,0,5.3L40.4,96.8c-5.9,5.9-14.2,5.3-19.1,0.4L7.5,83.3C2.2,78,2.4,69.7,7.8,64.2l20.1-20.1
	c1.5-1.5,3.8-1.5,5.3,0l2.7,2.7c1.5,1.5,1.5,3.8,0,5.3L15.4,72.5c-0.9,0.9-0.8,2.3,0,2.7L29.2,89c0.9,0.8,2.3,0.8,2.7,0l20.5-20.5
	c1.5-1.5,3.8-1.5,5.3,0L60.5,71.4z M35.1,66.8l2.7,2.7c1.5,1.5,3.8,1.5,5.3,0l25-25c1.5-1.5,1.5-3.8,0-5.3l-2.7-2.7
	c-1.5-1.5-3.8-1.5-5.3,0l-25,25C33.6,62.9,33.6,65.3,35.1,66.8z M95.7,22.9c-3.2-3.2-10.8-10.8-14-14C76.4,3.6,68.1,4,63.1,9.1
	L42.7,29.4c-1.5,1.5-1.5,3.8,0,5.3l2.7,2.7c1.5,1.5,3.8,1.5,5.3,0l20.5-20.5c0.9-0.9,2.3-0.8,2.7,0l13.8,13.8c0.8,0.9,0.8,2.3,0,2.7
	L67.3,54c-1.5,1.5-1.5,3.8,0,5.3l2.7,2.7c1.5,1.5,3.8,1.5,5.3,0l20.5-20.5C100.6,36.5,101,28.2,95.7,22.9z M11.8,32.2
	c0,1.1,0.8,1.9,1.9,1.9h7.6c1.1,0,1.9-0.8,1.9-1.9v-9.5h9.5c1.1,0,1.9-0.8,1.9-1.9v-7.6c0-1.1-0.8-1.9-1.9-1.9h-9.5V1.9
	c0-1.1-0.8-1.9-1.9-1.9h-7.6c-1.1,0-1.9,0.8-1.9,1.9v9.5H2.4c-1.1,0-1.9,0.8-1.9,1.9v7.6c0,1.1,0.8,1.9,1.9,1.9h9.5V32.2z"/>
</svg>
