<?xml version="1.0" encoding="utf-8"?>
<!-- Generator: Adobe Illustrator 22.1.0, SVG Export Plug-In . SVG Version: 6.00 Build 0)  -->
<svg version="1.1" id="Layer_1" xmlns="http://www.w3.org/2000/svg" xmlns:xlink="http://www.w3.org/1999/xlink" x="0px" y="0px"
	 viewBox="0 0 14 17.5" style="enable-background:new 0 0 14 17.5;" xml:space="preserve">
<title>Delete 5</title>
<desc>Created with Sketch.</desc>
<g>
	<g>
		<path d="M8.5,11C8.2,11,8,10.8,8,10.5V5c0-0.3,0.2-0.5,0.5-0.5S9,4.7,9,5v5.5C9,10.8,8.8,11,8.5,11z M5.5,11C5.2,11,5,10.8,5,10.5
			V5c0-0.3,0.2-0.5,0.5-0.5S6,4.7,6,5v5.5C6,10.8,5.8,11,5.5,11z M13.5,2.5H11v-1C11,0.7,10.3,0,9.5,0h-5C3.7,0,3,0.7,3,1.5v1H0.5
			C0.2,2.5,0,2.7,0,3s0.2,0.5,0.5,0.5h13C13.8,3.5,14,3.3,14,3S13.8,2.5,13.5,2.5z M4,1.5C4,1.2,4.2,1,4.5,1h5C9.8,1,10,1.2,10,1.5
			v1H4V1.5z M10.5,14h-7C2.7,14,2,13.3,2,12.5V5c0-0.3,0.2-0.5,0.5-0.5S3,4.7,3,5v7.5C3,12.8,3.2,13,3.5,13h7c0.3,0,0.5-0.2,0.5-0.5
			V5c0-0.3,0.2-0.5,0.5-0.5S12,4.7,12,5v7.5C12,13.3,11.3,14,10.5,14z"/>
	</g>
</g>
</svg>
