<?xml version="1.0" encoding="utf-8"?>
<!-- Generator: Adobe Illustrator 22.1.0, SVG Export Plug-In . SVG Version: 6.00 Build 0)  -->
<svg version="1.1" id="Layer_1" xmlns="http://www.w3.org/2000/svg" xmlns:xlink="http://www.w3.org/1999/xlink" x="0px" y="0px"
	 viewBox="0 0 100 125" style="enable-background:new 0 0 100 125;" xml:space="preserve">
<g>
	<path d="M95.9,13.4l-7.2-7.3c-0.4-0.4-0.9-0.6-1.4-0.6s-1.1,0.2-1.4,0.6L44,48.6c-0.2,0.2-0.3,0.4-0.4,0.7l-4.7,11.9
		c-0.3,0.7-0.1,1.6,0.5,2.1c0.6,0.6,1.4,0.7,2.1,0.4L53.3,59c0.3-0.1,0.5-0.3,0.7-0.5L95.9,16C96.7,15.4,96.7,14.1,95.9,13.4z"/>
	<path d="M77.5,46.1c-2.8,0-5,2.2-5,5v33.4h-59v-64h48.6c2.8,0,5-2.2,5-5s-2.2-5-5-5H8.5c-2.8,0-5,2.1-5,4.8v74.2c0,2.8,2.2,5,5,5
		h68.8c2.8,0,5.2-2.3,5.2-5V51.1C82.5,48.3,80.3,46.1,77.5,46.1z"/>
</g>
</svg>
